<svg width="1400" height="963" viewBox="0 0 1400 963" fill="none" xmlns="http://www.w3.org/2000/svg">
<path d="M393.138 434.991L388.622 457.009L387.156 479.933L388.863 503.357L393.816 526.858L402.032 550.006L413.473 572.369L428.048 593.522L445.61 613.052L465.962 630.564L488.854 645.69L513.994 658.094L541.046 667.474L569.636 673.574L599.358 676.182L629.781 675.137L660.453 670.332L690.909 661.715L720.677 649.292L749.286 633.127L776.272 613.34L801.186 590.11L823.599 563.67L843.112 534.303L859.358 502.343L872.011 468.168L880.789 432.194L885.462 394.872L885.851 356.682L881.835 318.122L873.353 279.708L860.404 241.962L843.048 205.407L821.407 170.557L795.665 137.915L766.062 107.958L732.896 81.1391L696.516 57.8741L657.321 38.5386L615.751 23.4616L572.286 12.9208L527.435 7.13836L481.734 6.27735L435.737 10.439L390.006 19.6607L345.109 33.9156L301.608 53.1116L260.056 77.093L220.982 105.641L184.894 138.479L152.262 175.27L123.52 215.629L99.0553 259.12L79.2043 305.267L64.2483 353.556L54.4097 403.445L49.8488 454.369L50.6612 505.748L56.877 556.995L68.4599 607.52L85.3079 656.743L107.254 704.1L134.07 749.046L165.468 791.067L201.103 829.685L240.581 864.465L283.461 895.018L329.262 921.008L377.471 942.154L427.547 958.238L478.928 969.102L531.042 974.654L583.311 974.866L635.159 969.774L686.021 959.481L735.35 944.149L782.622 924.002L827.345 899.32L869.064 870.433L907.367 837.721L941.889 801.604L972.319 762.538L998.4 721.009L1019.93 677.523L1036.78 632.605L1048.87 586.785L1056.18 540.596L1058.77 494.563L1056.73 449.198L1050.24 404.994L1039.5 362.414L1024.79 321.892L1006.41 283.822L984.736 248.553L960.139 216.39L933.042 187.583L903.885 162.332L873.121 140.778L841.216 123.008L808.634 109.049L775.835 98.8745L743.268 92.4001L711.36 89.4899L680.517 89.9578L651.112 93.5715L623.483 100.057L597.926 109.103L574.694 120.366L553.991 133.48L535.971 148.057L520.734 163.697L508.33 179.995L498.753 196.545L491.945 212.95L487.796 228.827L486.148 243.813L486.798 257.571L489.499 269.796L493.968 280.22L499.889 288.617L506.918 294.805L514.691 298.65L522.829 300.07L530.945 299.033L538.651 295.562L545.561 289.732L551.304 281.667L555.527 271.543L557.9 259.585L558.125 246.058L555.938 231.271L551.118 215.565L543.487 199.312L532.918 182.909L519.334 166.771L502.712 151.323L483.085 136.997L460.541 124.221L435.224 113.414L407.332 104.981L377.115 99.3025L344.873 96.7307L310.951 97.5822L275.737 102.134L239.653 110.616L203.155 123.208L166.721 140.037L130.851 161.173L96.0536 186.625L62.8428 216.342L31.7301 250.214L3.21675 288.067L-22.2135 329.669L-44.1006 374.73L-62.0163 422.905L-75.5697 473.798L-84.4132 526.968L-88.2485 581.929L-86.831 638.163L-79.9741 695.12L-67.5521 752.227L-49.5036 808.898L-25.8325 864.535L3.39108 918.542L38.0303 970.33L77.883 1019.32L122.684 1064.96L172.106 1106.74L225.765 1144.14L283.225 1176.74L343.999 1204.14L407.561 1225.99L473.346 1242L540.761 1251.95L609.19 1255.68L678.003 1253.1L746.56 1244.19L814.226 1228.98L880.369 1207.61L944.378 1180.23L1005.66 1147.11L1063.66 1108.55L1117.85 1064.91L1167.76 1016.61L1212.94 964.124L1253.04 907.951L1287.72 848.639L1316.73 786.758L1339.89 722.904L1357.06 657.684L1368.18 591.713L1373.26 525.602L1372.38 459.956L1365.67 395.363L1353.34 332.387L1335.63 271.564L1312.87 213.391L1285.4 158.324L1253.65 106.774L1218.05 59.0968L1179.07 15.5964L1137.22 -23.4828L1093.01 -57.956L1046.97 -87.6998L999.622 -112.652L951.502 -132.811L903.121 -148.235L854.976 -159.039L807.541 -165.393L761.256 -167.517L716.529 -165.677L673.725 -160.18L633.163 -151.368L595.115 -139.613L559.802 -125.309L527.39 -108.868L497.992 -90.7102L471.666 -71.2597L448.414 -50.9356L428.187 -30.1468L410.885 -9.28504L396.36 11.2813L384.42 31.2124L374.833 50.2024L367.332 67.9843L361.621 84.333L357.38 99.0694L354.271 112.062L351.945 123.23L350.048 132.542L348.23 140.017L346.147 145.725L343.471 149.784L339.895 152.355L335.139 153.647L328.954 153.902L321.13 153.399L311.496 152.448L299.927 151.38L286.345 150.544L270.724 150.301L253.085 151.018L233.504 153.06L212.106 156.781L189.068 162.524L164.614 170.61L139.012 181.329L112.574 194.942L85.6487 211.671L58.6177 231.692L31.8898 255.137L5.89509 282.084L-18.9207 312.56L-42.104 346.535L-63.1992 383.922L-81.756 424.578L-97.3367 468.303L-109.523 514.841L-117.921 563.885L-122.172 615.076L-121.955 668.011L-116.99 722.243L-107.051 777.29L-91.962 832.639L-71.6058 887.754L-45.9255 942.079L-14.9259 995.049L21.324 1046.09L62.691 1094.65L108.978 1140.17L159.926 1182.11L215.216 1219.96L274.47 1253.26L337.258 1281.56L403.1 1304.47L471.475 1321.66L541.82 1332.85L613.545 1337.8L686.032 1336.37L758.648 1328.46L830.749 1314.05L901.69 1293.18L970.832 1265.97L1037.55 1232.6L1101.24 1193.31L1161.31 1148.43L1217.25 1098.31L1268.53 1043.4L1314.72 984.163L1355.41 921.131L1390.27 854.866L1419.02 785.962L1441.45 715.04L1457.4 642.738L1466.81 569.704L1469.67 496.587L1466.05 424.032L1456.06 352.67L1439.92 283.11L1417.87 215.935L1390.24 151.691L1357.4 90.8861L1319.77 33.9786L1277.82 -18.6231L1232.04 -66.567L1182.98 -109.561L1131.18 -147.373L1077.22 -179.839L1021.67 -206.856L965.127 -228.387L908.153 -244.462L851.31 -255.169L795.139 -260.66L740.152 -261.142L686.826 -256.875L635.601 -248.166L586.87 -235.367L540.981 -218.865L498.226 -199.08L458.846 -176.452L423.022 -151.441L390.878 -124.518L362.48 -96.1534L337.837 -66.8168L316.901 -36.9653L299.569 -7.03867L285.69 22.5469L275.063 51.4051L267.446 79.1844L262.558 105.573L260.086 130.303L259.692 153.153L261.016 173.952L263.687 192.579L267.323 208.967L271.547 223.1L275.984 235.014L280.275 244.797L284.08 252.581L287.082 258.547L288.998 262.913L289.577 265.938L288.61 267.907L285.932 269.136L281.423 269.96L275.013 270.726L266.682 271.79L256.459 273.509L244.427 276.235L230.717 280.307L215.506 286.044L199.018 293.743L181.518 303.67L163.311 316.054L144.73 331.086L126.141 348.91L107.93 369.624L90.4968 393.274L74.2539 419.854L59.6149 449.306L46.9895 481.514L36.7773 516.312L29.3596 553.48L25.0943 592.748L24.3087 633.798L27.2943 676.272L34.3011 719.769L45.5327 763.855L61.1423 808.069L81.2293 851.926L105.836 894.927L134.946 936.561L168.484 976.318L206.313 1013.69L248.238 1048.19L294.004 1079.33L343.302 1106.68L395.769 1129.81L450.993 1148.35L508.519 1161.97L567.85 1170.39L628.459 1173.38L689.791 1170.77L751.268 1162.46L812.304 1148.4L872.303 1128.62L930.673 1103.2L986.831 1072.3L1040.21 1036.13L1090.27 994.98L1136.5 949.181L1178.42 899.13L1215.62 845.272L1247.69 788.096L1274.34 728.133L1295.27 665.948L1310.3 602.131L1319.29 537.292L1322.16 472.054L1318.91 407.042L1309.6 342.88L1294.37 280.18L1273.42 219.534L1247 161.511L1215.44 106.645L1179.1 55.4312L1138.43 8.3191L1093.88 -34.2919L1045.97 -72.0581L995.244 -104.695L942.267 -131.981L887.625 -153.758L831.914 -169.936L775.735 -180.489L719.68 -185.461L664.332 -184.957L610.253 -179.149L557.979 -168.265L508.013 -152.593L460.816 -132.471L416.808 -108.284L376.356 -80.4579L339.776 -49.4533L307.325 -15.7595L279.2 20.1138L255.539 57.6422L236.414 96.2954L221.837 135.544L211.759 174.865L206.071 213.753L204.607 251.724L207.146 288.321L213.42 323.123L223.113 355.747L235.874 385.858L251.314 413.165L269.02 437.432L288.555 458.478L309.473 476.177L331.317 490.461L353.632 501.319L375.971 508.795L397.898 512.991L419.002 514.059L438.895 512.201L457.224 507.664L473.671 500.736L487.962 491.74L499.868 481.03L509.212 468.982L515.864 455.991L519.75 442.463L520.85 428.806L519.197 415.427L514.877 402.723L508.028 391.075L498.836 380.841L487.532 372.351L474.389 365.903L459.718 361.754L443.859 360.119L427.179 361.166L410.068 365.014L392.924 371.73L376.157 381.329L360.175 393.77L345.378 408.961L332.155 426.757L320.876 446.962L311.882 469.333L305.486 493.584L301.96 519.388L301.538 546.383L304.404 574.177L310.696 602.354L320.497 630.483L333.837 658.118L350.689 684.811L370.971 710.117L394.546 733.598L421.22 754.835L450.751 773.429L482.843 789.015L517.158 801.257L553.316 809.865L590.9 814.592L629.463 815.24L668.533 811.667L707.622 803.785L746.228 791.566L783.846 775.041L819.976 754.3L854.124 729.494L885.817 700.831L914.605 668.576L940.068 633.046L961.823 594.608L979.531 553.672L992.899 510.69L1001.69 466.147L1005.72 420.554L1004.86 374.444L999.051 328.364L988.296 282.867L972.657 238.506L952.263 195.824L927.302 155.351L898.024 117.591L864.737 83.0212L827.8 52.08L787.623 25.1651L744.658 2.62573L699.399 -15.2415L652.367 -28.197L604.111 -36.0614L555.199 -38.7184L506.206 -36.1161L457.713 -28.2686L410.296 -15.2553L364.519 2.77953L320.925 25.6288L280.034 53.0251L242.33 84.6439L208.256 120.109L178.214 158.994L152.551 200.834L131.561 245.124L115.479 291.334L104.478 338.907L98.6663 387.274L98.0877 435.858L102.72 484.08L112.477 531.37L127.207 577.174L146.699 620.958L170.681 662.218L198.83 700.485L230.771 735.333L266.084 766.381L304.312 793.301L344.965 815.819L387.527 833.721L431.462 846.854L476.227 855.128L521.271 858.514L566.048 857.049L610.023 850.831L652.68 840.017L693.526 824.823L732.099 805.518L767.977 782.42L800.777 755.892L830.167 726.336L855.862 694.188L877.635 659.908L895.315 623.979L908.79 586.894L918.008 549.154L922.975 511.257L923.757 473.693L920.476 436.936L913.309 401.439L902.485 367.626L888.277 335.887L871.003 306.574L851.018 279.991L828.706 256.4L804.479 236.008L778.765 218.969L752.005 205.384L724.645 195.295L697.13 188.691L669.894 185.505L643.358 185.616L617.919 188.855L593.948 195.003L571.783 203.799L551.721 214.942L534.02 228.099L518.889 242.909L506.488 258.987L496.927 275.935L490.26 293.345L486.491 310.808L485.567 327.917L487.386 344.28L491.792 359.52L498.584 373.285L507.515 385.253L518.299 395.137L530.613 402.689L544.104 407.708L558.396 410.037L573.092 409.573L587.785 406.265L602.063 400.113L615.513 391.175L627.733 379.56L638.335 365.431L646.953 349.001L653.248 330.53L656.915 310.324L657.689 288.725L655.348 266.113L649.717 242.895L640.675 219.502L628.152 196.381L612.137 173.99L592.676 152.788L569.87 133.234L543.88 115.771L514.922 100.826L483.265 88.804L449.228 80.0744L413.176 74.9718L375.518 73.7876L336.699 76.7649L297.193 84.0951L257.502 95.9135L218.144 112.296L179.649 133.26L142.549 158.756L107.375 188.677L74.645 222.852L44.8608 261.048L18.4973 302.975L-4.0021 348.288L-22.2327 396.588L-35.8341 447.433L-44.4958 500.334L-47.9623 554.772L-46.0359 610.193L-38.5818 666.024L-25.5285 721.676L-6.8714 776.551L17.328 830.05L46.9418 881.584L81.7762 930.576L121.574 976.474L166.019 1018.75L214.735 1056.92L267.296 1090.54L323.226 1119.21L382.008 1142.59L443.092 1160.39L505.894 1172.38L569.815 1178.42L634.235 1178.39L698.533 1172.29L762.086 1160.15L824.281 1142.08L884.521 1118.26L942.233 1088.93L996.876 1054.39L1047.94 1014.98L1094.97 971.13L1137.55 923.282L1175.32 871.931L1207.98 817.604L1235.29 760.857L1257.07 702.264L1273.2 642.409L1283.65 581.886L1288.41 521.281L1287.59 461.173L1281.32 402.123L1269.81 344.667L1253.3 289.31L1232.13 236.522L1206.64 186.728L1177.23 140.309L1144.34 97.5911L1108.43 58.8484L1069.98 24.2968L1029.49 -5.90673L987.483 -31.6651L944.45 -52.9411L900.899 -69.7564L857.318 -82.1904L814.175 -90.3771L771.912 -94.5025L730.94 -94.8002L691.632 -91.5469L654.318 -85.0574L619.284 -75.6789L586.766 -63.7846L556.948 -49.7676L529.963 -34.0343L505.887 -16.9972L484.744 0.931385L466.505 19.3461L451.089 37.8556L438.366 56.088L428.161 73.6975L420.255 90.3693L414.395 105.825L410.293 119.826L407.635 132.178L406.087 142.735L405.299 151.398L404.915 158.118L404.577 162.9L403.931 165.797L402.635 166.912L400.367 166.397L396.827 164.445L391.744 161.296L384.885 157.223L376.054 152.532L365.099 147.56L351.915 142.66L336.447 138.205L318.692 134.575L298.697 132.152L276.563 131.315L252.444 132.431L226.543 135.85L199.112 141.897L170.447 150.868L140.887 163.022L110.808 178.578L80.6152 197.709L50.7434 220.539L21.6454 247.136L-6.21161 277.517L-32.3541 311.637L-56.3083 349.397L-77.6081 390.636L-95.8017 435.138L-110.458 482.631L-121.176 532.788L-127.586 585.232L-129.363 639.541L-126.223 695.251L-117.938 751.862L-104.332 808.843L-85.2904 865.642L-60.7584 921.688L-30.7459 976.4L4.67232 1029.2L45.3564 1079.5L91.1019 1126.75L141.641 1170.4L196.646 1209.93L255.731 1244.87L318.457 1274.76L384.335 1299.23L452.834 1317.92L523.387 1330.55L595.391 1336.9L668.226 1336.82L741.251 1330.2L813.818 1317.04L885.277 1297.37L954.985 1271.31L1022.31 1239.05L1086.66 1200.84L1147.44 1156.98L1204.12 1107.87L1256.2 1053.92L1303.23 995.61L1344.82 933.472L1380.62 868.066L1410.37 799.983L1433.85 729.843L1450.93 658.279L1461.52 585.934L1465.63 513.452L1463.32 441.471L1454.72 370.615L1440.03 301.484L1419.51 234.653L1393.46 170.659L1362.27 109.999L1326.34 53.1229L1286.14 0.428369L1242.16 -47.7421L1194.92 -91.1052L1144.98 -129.439L1092.88 -162.586L1039.2 -190.451L984.497 -213.004L929.335 -230.277L874.257 -242.363L819.783 -249.415L766.408 -251.64L714.59 -249.294L664.75 -242.683L617.262 -232.149L572.454 -218.074L530.6 -200.863L491.923 -180.948L456.586 -158.771L424.699 -134.786L396.312 -109.446L371.42 -83.1994L349.966 -56.48L331.838 -29.7043L316.876 -3.26317L304.877 22.4833L295.595 47.2107L288.751 70.6348L284.036 92.5155L281.117 112.66L279.644 130.924L279.257 147.214L279.59 161.489L280.282 173.759L280.979 184.083L281.345 192.569L281.062 199.371L279.842 204.686L277.429 208.749L273.604 211.828L268.188 214.222L261.049 216.251L252.101 218.254L241.307 220.578L228.68 223.577L214.285 227.603L198.236 232.996L180.696 240.084L161.875 249.171L142.027 260.537L121.443 274.425L100.455 291.041L79.4202 310.55L58.7249 333.069L38.7732 358.666L19.9825 387.354L2.77682 419.096L-12.4203 453.799L-25.1923 491.314L-35.1366 531.439L-41.8712 573.919L-45.0416 618.451L-44.3261 664.683L-39.4424 712.221L-30.1523 760.635L-16.2667 809.46L2.35028 858.206L25.7787 906.361L54.0395 953.399L87.0928 998.79L124.838 1042L167.111 1082.51L213.69 1119.81L264.293 1153.41L318.58 1182.85L376.159 1207.71L436.59 1227.62L499.389 1242.23L564.03 1251.27L629.958 1254.51L696.592 1251.79L763.329 1243.02L829.556 1228.15L894.657 1207.22L958.018 1180.33L1019.03 1147.65L1077.12 1109.41L1131.73 1065.9L1182.32 1017.48L1228.41 964.565L1269.57 907.607L1305.4 847.118L1335.57 783.644L1359.81 717.767L1377.91 650.093L1389.73 581.248L1395.19 511.868L1394.28 442.595L1387.08 374.065L1373.71 306.903L1354.37 241.713L1329.32 179.076L1298.88 119.536L1263.44 63.5971L1223.4 11.7196L1179.25 -35.689L1131.5 -78.2764L1080.69 -115.75L1027.38 -147.88L972.168 -174.501L915.639 -195.514L858.393 -210.887L801.022 -220.652L744.107 -224.908L688.206 -223.814L633.852 -217.59L581.544 -206.512L531.744 -190.906L484.867 -171.142L441.279 -147.634L401.294 -120.826L365.169 -91.1918L333.102 -59.2238L305.23 -25.4278L281.63 9.68446L262.318 45.6031L247.25 81.827L236.325 117.87L229.386 153.27L226.225 187.59L226.585 220.432L230.169 251.433L236.641 280.278L245.634 306.696L256.755 330.47L269.594 351.435L283.729 369.482L298.733 384.556L314.181 396.658L329.657 405.843L344.761 412.218L359.113 415.941L372.364 417.216L384.194 416.288L394.326 413.44L402.52 408.99L408.588 403.279L412.384 396.671L413.82 389.542L412.853 382.277L409.499 375.263L403.822 368.877L395.938 363.489L386.013 359.445L374.257 357.069L360.925 356.655L346.309 358.459L330.735 362.698L314.556 369.544L298.15 379.12L281.91 391.502L266.237 406.709L251.538 424.711L238.214 445.423L226.657 468.707L217.242 494.373L210.321 522.183L206.215 551.854L205.211 583.058L207.556 615.433L213.452 648.581L223.051 682.078L236.455 715.481L253.709 748.33L274.805 780.158L299.674 810.498L328.192 838.888L360.178 864.879L395.397 888.043L433.561 907.978L474.333 924.314L517.33 936.722L562.131 944.913L608.277 948.65L655.282 947.75L702.636 942.082L749.814 931.578L796.28 916.23L841.498 896.09L884.936 871.273L926.076 841.957L964.419 808.376L999.492 770.824L1030.86 729.649L1058.11 685.246L1080.91 638.058L1098.94 588.567L1111.96 537.287L1119.77 484.761L1122.25 431.552L1119.34 378.237L1111.03 325.396L1097.39 273.61L1078.55 223.449L1054.7 175.468L1026.1 130.195L993.069 88.1297L955.967 49.7333L915.214 15.4234L871.273 -14.4313L824.644 -39.5161L775.861 -59.5743L725.482 -74.4103L674.083 -83.8925L622.252 -87.9547L570.58 -86.597L519.651 -79.8857L470.039 -67.9521L422.299 -50.9907L376.958 -29.2568L334.511 -3.06228L295.411 27.228L260.069 61.2014L228.842 98.4036L202.035 138.344L179.893 180.504L162.6 224.34L150.277 269.297L142.981 314.809L140.702 360.314L143.369 405.253L150.846 449.087L162.938 491.294L179.394 531.384L199.908 568.901L224.127 603.43L251.654 634.602L282.055 662.099L314.866 685.657L349.599 705.069L385.746 720.188L422.791 730.929L460.218 737.266L497.51 739.236L534.166 736.934L569.702 730.516L603.66 720.188L635.612 706.211L665.169 688.89L691.984 668.574L715.756 645.646L736.234 620.521L753.222 593.636L766.579 565.446L776.221 536.416L782.122 507.015L784.313 477.704L782.882 448.938L777.97 421.153L769.769 394.759L758.52 370.137L744.507 347.635L728.054 327.558L709.517 310.166L689.279 295.673L667.747 284.24L645.339 275.976L622.485 270.935L599.612 269.116L577.145 270.463L555.496 274.869L535.056 282.173L516.194 292.168L499.246 304.6L484.513 319.177L472.254 335.57L462.686 353.419L455.974 372.342L452.235 391.935L451.532 411.785L453.873 431.475L459.213 450.588L467.454 468.715L478.445 485.464L491.985 500.463L507.826 513.37L525.678 523.874L545.21 531.704L566.06 536.631L587.835 538.476L610.122 537.108L632.491 532.45L654.503 524.48L675.716 513.232L695.695 498.795L714.014 481.315L730.266 460.99L744.069 438.069L755.072 412.85L762.961 385.674L767.463 356.923L768.353 327.011L765.456 296.382L758.653 265.501L747.879 234.851L733.13 204.92L714.461 176.2L691.984 149.177L665.874 124.323L636.36 102.092L603.727 82.9101L568.312 67.17L530.496 55.2262L490.707 47.3877L449.408 43.9143L407.092 45.0113L364.279 50.8267L321.506 61.4479L279.321 76.9003L238.275 97.1452L198.915 122.081L161.777 151.541L127.378 185.3L96.2094 223.072L68.7283 264.513L45.3543 309.231L26.4613 356.783L12.3729 406.685L3.3575 458.419L-0.375521 511.436L1.32117 565.163L8.53037 619.013L21.2687 672.393L39.4863 724.708L63.0671 775.368L91.8297 823.803L125.53 869.463L163.863 911.825L206.469 950.407L252.934 984.765L302.799 1014.51L355.563 1039.29L410.692 1058.83L467.621 1072.91L525.768 1081.36L584.535 1084.09L643.319 1081.09L701.518 1072.37L758.543 1058.06L813.817 1038.32L866.791 1013.38L916.945 983.538L963.797 949.13L1006.91 910.553L1045.88 868.245L1080.39 822.681L1110.15 774.369L1134.93 723.843L1154.58 671.651L1169 618.355L1178.16 564.517L1182.08 510.696L1180.87 457.441L1174.68 405.278L1163.7 354.711L1148.21 306.211L1128.52 260.211L1104.98 217.103L1077.99 177.23L1047.97 140.884L1015.37 108.303L980.657 79.6685L944.323 55.1049L906.849 34.6771L868.721 18.3919L830.413 6.19914L792.386 -2.0066L755.075 -6.38329L718.891 -7.13792L684.208 -4.52226L651.362 1.1717L620.647 9.61729L592.308 20.4587L566.543 33.3177L543.495 47.7992L523.257 63.4989L505.866 80.0093L491.308 96.927L479.515 113.859L470.369 130.428L463.705 146.283L459.316 161.097L456.953 174.581L456.333 186.482L457.142 196.59L459.045 204.743L461.687 210.825L464.702 214.773L467.72 216.571L470.371 216.26L472.296 213.929L473.15 209.716L472.609 203.808L470.375 196.435L466.185 187.869L459.812 178.416L451.073 168.416L439.83 158.231L425.994 148.246L409.529 138.858L390.45 130.471L368.827 123.487L344.785 118.305L318.5 115.308L290.202 114.859L260.167 117.294L228.717 122.917L196.216 131.994L163.065 144.746L129.695 161.347L96.5629 181.92L64.1452 206.532L32.9304 235.191L3.41234 267.848L-23.9165 304.395L-48.5726 344.661L-70.0888 388.421L-88.0203 435.388L-101.953 485.226L-111.508 537.545L-116.349 591.909L-116.188 647.843L-110.79 704.833L-99.9744 762.337L-83.6238 819.79L-61.6822 876.61L-34.1587 932.207L-1.1281 985.99L37.2684 1037.37L80.8249 1085.79L129.272 1130.68L182.28 1171.52L239.46 1207.84L300.37 1239.19L364.522 1265.17L431.382 1285.43L500.381 1299.69L570.918 1307.73L642.372 1309.39L714.102 1304.58L785.463 1293.28L855.808 1275.53L924.497 1251.44L990.907 1221.21L1054.44 1185.08L1114.51 1143.37L1170.6 1096.45L1222.21 1044.73L1268.91 988.706L1310.29 928.886L1346.04 865.828L1375.87 800.117L1399.6 732.363L1417.09 663.188L1428.26 593.224L1433.12 523.104L1431.74 453.451L1424.25 384.874L1410.84 317.96L1391.77 253.266L1367.37 191.314L1337.99 132.583L1304.04 77.5069L1265.97 26.4667L1224.28 -20.2118L1179.47 -62.2613L1132.07 -99.4755L1082.64 -131.71L1031.71 -158.884L979.838 -180.978L927.561 -198.035L875.402 -210.157L823.86 -217.501L773.404 -220.279L724.469 -218.751L677.452 -213.219L632.702 -204.025L590.522 -191.544L551.161 -176.174L514.817 -158.335L481.632 -138.458L451.691 -116.98L425.025 -94.3364L401.609 -70.9556L381.369 -47.25L364.176 -23.6119L349.86 -0.406415L338.203 22.0334L328.955 43.4114L321.83 63.4725L316.517 82.0063L312.682 98.8497L309.981 113.889L308.058 127.061L306.558 138.354L305.131 147.805L303.44 155.501L301.164 161.576L298.008 166.208L293.705 169.615L288.025 172.053L280.773 173.807L271.801 175.19L261.005 176.535L248.33 178.188L233.77 180.504L217.372 183.839L199.23 188.543L179.491 194.956L158.349 203.398L136.046 214.165L112.862 227.522L89.12 243.698L65.1746 262.884L41.4102 285.223L18.2339 310.81L-3.92971 339.688L-24.6456 371.848L-43.4751 407.223L-59.9823 445.692L-73.7414 487.078L-84.343 531.15L-91.4016 577.622L-94.5619 626.162L-93.5038 676.39L-87.9499 727.882L-77.669 780.18L-62.4819 832.793L-42.2642 885.204L-16.9501 936.88L13.4652 987.273L48.9245 1035.83L89.3075 1082L134.431 1125.25L184.052 1165.06L237.864 1200.91L295.507 1232.36L356.566 1258.96L420.577 1280.34L487.034 1296.16L555.391 1306.13L625.07 1310.04L695.468 1307.72L765.965 1299.08L835.929 1284.09L904.726 1262.8L971.726 1235.31L1036.31 1201.79L1097.88 1162.49L1155.88 1117.72L1209.75 1067.85L1259.01 1013.28L1303.21 954.504L1341.96 892.032L1374.91 826.424L1401.8 758.27L1422.4 688.188L1436.57 616.812L1444.25 544.788L1445.41 472.766L1440.13 401.387L1428.53 331.285L1410.82 263.07L1387.25 197.325L1358.14 134.6L1323.87 75.4041L1284.86 20.2001L1241.58 -30.601L1194.54 -76.6441L1144.28 -117.634L1091.36 -153.337L1036.36 -183.585L979.867 -208.275L922.479 -227.37L864.778 -240.899L807.337 -248.953L750.706 -251.686L695.411 -249.309L641.944 -242.089L590.758 -230.342L542.259 -214.427L496.807 -194.743L454.71 -171.722L416.217 -145.82L381.522 -117.513L350.758 -87.2888L324.001 -55.6391L301.264 -23.0533L282.505 9.98891L267.626 43.0243L256.474 75.6125L248.847 107.342L244.499 137.836L243.144 166.757L244.459 193.81L248.094 218.751L253.675 241.382L260.814 261.559L269.11 279.191L278.163 294.243L287.576 306.73L296.962 316.721L305.952 324.335L314.201 329.738L321.391 333.139L327.24 334.788L331.506 334.968L333.986 333.99L334.527 332.193L333.023 329.928L329.418 327.56L323.707 325.457L315.939 323.985L306.211 323.501L294.67 324.346L281.51 326.84L266.97 331.275L251.326 337.911L234.893 346.967L218.014 358.624L201.058 373.013L184.414 390.217L168.481 410.269L153.667 433.147L140.379 458.777L129.014 487.031L119.959 517.728L113.577 550.636L110.206 585.478L110.151 621.929L113.678 659.625L121.009 698.166L132.321 737.122L147.738 776.038L167.327 814.442L191.103 851.847L219.019 887.766L250.972 921.71L286.799 953.203L326.28 981.782L369.14 1007.01L415.051 1028.48L463.636 1045.81L514.474 1058.69L567.104 1066.82L621.03 1069.97L675.729 1067.98L730.657 1060.71L785.254 1048.13L838.954 1030.23L891.189 1007.09L941.403 978.84L989.05 945.688L1033.61 907.89L1074.58 865.764L1111.52 819.682L1144.01 770.068L1171.67 717.39L1194.2 662.157L1211.34 604.91L1222.88 546.22L1228.7 486.674L1228.73 426.874L1222.97 367.427L1211.48 308.937L1194.4 251.997L1171.91 197.182L1144.29 145.044L1111.85 96.1016L1074.95 50.8346L1034.03 9.67879L989.559 -26.9802L942.034 -58.8114L891.999 -85.5426L840.019 -106.964L786.677 -122.929L732.567 -133.359L678.285 -138.241L624.423 -137.627L571.562 -131.637L520.261 -120.452L471.054 -104.314L424.442 -83.5228L380.885 -58.4298L340.8 -29.4337L304.551 3.0247L272.45 38.4696L244.751 76.3959L221.646 116.277L203.265 157.572L189.675 199.733L180.88 242.21L176.819 284.465L177.373 325.972L182.361 366.227L191.549 404.756L204.651 441.118L221.335 474.913L241.224 505.788L263.911 533.436L288.956 557.606L315.897 578.102L344.259 594.787L373.554 607.581L403.296 616.465L433.005 621.479L462.211 622.719L490.467 620.337L517.35 614.536L542.468 605.569L565.467 593.73L586.037 579.355L603.912 562.811L618.877 544.492L630.768 524.813L639.477 504.203L644.952 483.099L647.194 461.935L646.261 441.143L642.266 421.138L635.369 402.317L625.783 385.049L613.763 369.673L599.605 356.491L583.64 345.763L566.229 337.703L547.756 332.477L528.623 330.199L509.244 330.93L490.035 334.677L471.41 341.394L453.774 350.98L437.516 363.284L423.003 378.105L410.572 395.196L400.529 414.266L393.138 434.991Z" stroke="url(#paint0_linear_139_626)"/>
<defs>
<linearGradient id="paint0_linear_139_626" x1="824.5" y1="10" x2="824.5" y2="607.5" gradientUnits="userSpaceOnUse">
<stop stop-color="#C2D1F9" stop-opacity="0.61"/>
<stop offset="1" stop-color="#C2D1F9" stop-opacity="0"/>
</linearGradient>
</defs>
</svg>
